{"title":"6 Souls 2013 LiMiTED DVDRip XviD AC3-REFiLL","uid":8718863,"size":1526841825,"categoryP":"video","categoryS":"movies","magnet":"?xt=urn:btih:9872a1157ae948c0400e19ee878fc9023ce996c6&amp;dn=6+Souls+2013+LiMiTED+DVDRip+XviD+AC3-REFiLL&amp;tr=udp%3A%2F%2Ftracker.openbittorrent.com%3A80&amp;tr=udp%3A%2F%2Fopen.demonii.com%3A1337&amp;tr=udp%3A%2F%2Ftracker.coppersurfer.tk%3A6969&amp;tr=udp%3A%2F%2Fexodus.desync.com%3A6969","seeders":7,"leechers":9,"uploader":"ValidusVyto","files":-1,"time":1374379774,"description":"_______ Visit us at our Semi Public Bittorrent Community ________\n   &lt;a href=&quot;\nhttp://p2pdl.com&quot; rel=&quot;nofollow&quot; target=&quot;_NEW&quot;&gt;\nhttp://p2pdl.com&lt;/a&gt;  _____________________________ &lt;a href=&quot; http://p2pdl.com&quot; rel=&quot;nofollow&quot; target=&quot;_NEW&quot;&gt; http://p2pdl.com&lt;/a&gt;\n\nA female forensic psychiatrist discovers that all of one of her patient's multiple personalities are murder victims. She will have to find out what's happening before her time is finished.\n\n &lt;a href=&quot;\nhttp://www.imdb.com/title/tt1179069/&quot; rel=&quot;nofollow&quot; target=&quot;_NEW&quot;&gt;\nhttp://www.imdb.com/title/tt1179069/&lt;/a&gt;\n\nGeneral\nFormat                                   : AVI\nFile size                                : 1.40 GiB\nDuration                                 : 1h 52mn\nOverall bit rate                         : 1 788 Kbps\n\nVideo\nCodec ID                                 : XVID\nCodec ID/Hint                            : XviD\nDuration                                 : 1h 52mn\nBit rate                                 : 1 333 Kbps\nWidth                                    : 720 pixels\nHeight                                   : 304 pixels\nDisplay aspect ratio                     : 2.35:1\nFrame rate                               : 23.976 fps\nColor space                              : YUV\nChroma subsampling                       : 4:2:0\nBit depth                                : 8 bits\nStream size                              : 1.04 GiB (75%)\nWriting library                          : XviD 1.2.1 (UTC 2008-12-04)\n\nAudio\nFormat                                   : AC-3\nFormat/Info                              : Audio Coding 3\nBit rate                                 : 448 Kbps\nChannel(s)                               : 6 channels\nChannel positions                        : Front: L C R, Side: L R, LFE\nSampling rate                            : 48.0 KHz\nBit depth                                : 16 bits\nStream size                              : 360 MiB (25%)\n\nSubtitle                                 : Yes\n &lt;a href=&quot;\nhttp://ultraimg.com/images/0Nau4.png&quot; rel=&quot;nofollow&quot; target=&quot;_NEW&quot;&gt;\nhttp://ultraimg.com/images/0Nau4.png&lt;/a&gt; &lt;a href=&quot;\nhttp://ultraimg.com/images/0sEO.png&quot; rel=&quot;nofollow&quot; target=&quot;_NEW&quot;&gt;\nhttp://ultraimg.com/images/0sEO.png&lt;/a&gt; &lt;a href=&quot;\nhttp://ultraimg.com/images/6GrS.png&quot; rel=&quot;nofollow&quot; target=&quot;_NEW&quot;&gt;\nhttp://ultraimg.com/images/6GrS.png&lt;/a&gt; &lt;a href=&quot;\nhttp://ultraimg.com/images/LuIo9.png&quot; rel=&quot;nofollow&quot; target=&quot;_NEW&quot;&gt;\nhttp://ultraimg.com/images/LuIo9.png&lt;/a&gt;\n","torrent":{"xt":"urn:btih:9872a1157ae948c0400e19ee878fc9023ce996c6","amp;dn":"6+Souls+2013+LiMiTED+DVDRip+XviD+AC3-REFiLL","amp;tr":["udp%3A%2F%2Ftracker.openbittorrent.com%3A80","udp%3A%2F%2Fopen.demonii.com%3A1337","udp%3A%2F%2Ftracker.coppersurfer.tk%3A6969","udp%3A%2F%2Fexodus.desync.com%3A6969"],"infoHash":"9872a1157ae948c0400e19ee878fc9023ce996c6","infoHashBuffer":{"type":"Buffer","data":[152,114,161,21,122,233,72,192,64,14,25,238,135,143,201,2,60,233,150,198]},"announce":[],"urlList":[]}}